<svg xmlns="http://www.w3.org/2000/svg" viewBox="0 0 600 380" role="img" aria-label="Diagram pengiriman dari tiga gudang ke empat toko">
<title>Jadwal pengiriman optimal: enam jalur terpakai</title>
<line x1="162" y1="80" x2="428" y2="138" stroke="#a88454" stroke-width="3.3" opacity="0.55"/>
<rect x="265" y="98" width="60" height="21" rx="6" fill="#fdfaf3" stroke="rgba(93,32,33,0.14)"/>
<text x="295" y="113" text-anchor="middle" font-size="11" fill="#5d2021">25 t @6</text>
<line x1="162" y1="80" x2="428" y2="224" stroke="#a88454" stroke-width="1.6" opacity="0.55"/>
<rect x="265" y="141" width="60" height="21" rx="6" fill="#fdfaf3" stroke="rgba(93,32,33,0.14)"/>
<text x="295" y="156" text-anchor="middle" font-size="11" fill="#5d2021">5 t @10</text>
<line x1="162" y1="185" x2="428" y2="52" stroke="#a88454" stroke-width="2.9" opacity="0.55"/>
<rect x="265" y="108" width="60" height="21" rx="6" fill="#fdfaf3" stroke="rgba(93,32,33,0.14)"/>
<text x="295" y="122" text-anchor="middle" font-size="11" fill="#5d2021">20 t @9</text>
<line x1="162" y1="185" x2="428" y2="224" stroke="#a88454" stroke-width="2.9" opacity="0.55"/>
<rect x="265" y="194" width="60" height="21" rx="6" fill="#fdfaf3" stroke="rgba(93,32,33,0.14)"/>
<text x="295" y="208" text-anchor="middle" font-size="11" fill="#5d2021">20 t @13</text>
<line x1="162" y1="290" x2="428" y2="138" stroke="#a88454" stroke-width="1.6" opacity="0.55"/>
<rect x="265" y="203" width="60" height="21" rx="6" fill="#fdfaf3" stroke="rgba(93,32,33,0.14)"/>
<text x="295" y="218" text-anchor="middle" font-size="11" fill="#5d2021">5 t @9</text>
<line x1="162" y1="290" x2="428" y2="310" stroke="#a88454" stroke-width="3.3" opacity="0.55"/>
<rect x="265" y="289" width="60" height="21" rx="6" fill="#fdfaf3" stroke="rgba(93,32,33,0.14)"/>
<text x="295" y="304" text-anchor="middle" font-size="11" fill="#5d2021">25 t @5</text>
<rect x="74" y="56" width="88" height="48" rx="9" fill="#5d2021"/>
<text x="118" y="77" text-anchor="middle" font-size="13" font-weight="700" fill="#fdfaf3">G1</text>
<text x="118" y="94" text-anchor="middle" font-size="11" fill="rgba(253,250,243,0.75)">30 ton</text>
<rect x="74" y="161" width="88" height="48" rx="9" fill="#5d2021"/>
<text x="118" y="182" text-anchor="middle" font-size="13" font-weight="700" fill="#fdfaf3">G2</text>
<text x="118" y="199" text-anchor="middle" font-size="11" fill="rgba(253,250,243,0.75)">40 ton</text>
<rect x="74" y="266" width="88" height="48" rx="9" fill="#5d2021"/>
<text x="118" y="287" text-anchor="middle" font-size="13" font-weight="700" fill="#fdfaf3">G3</text>
<text x="118" y="304" text-anchor="middle" font-size="11" fill="rgba(253,250,243,0.75)">30 ton</text>
<rect x="428" y="30" width="88" height="44" rx="9" fill="#fffdf9" stroke="#5d2021" stroke-width="1.6"/>
<text x="472" y="50" text-anchor="middle" font-size="13" font-weight="700" fill="#5d2021">T1</text>
<text x="472" y="66" text-anchor="middle" font-size="11" fill="#8a6a3e">20 ton</text>
<rect x="428" y="116" width="88" height="44" rx="9" fill="#fffdf9" stroke="#5d2021" stroke-width="1.6"/>
<text x="472" y="136" text-anchor="middle" font-size="13" font-weight="700" fill="#5d2021">T2</text>
<text x="472" y="152" text-anchor="middle" font-size="11" fill="#8a6a3e">30 ton</text>
<rect x="428" y="202" width="88" height="44" rx="9" fill="#fffdf9" stroke="#5d2021" stroke-width="1.6"/>
<text x="472" y="222" text-anchor="middle" font-size="13" font-weight="700" fill="#5d2021">T3</text>
<text x="472" y="238" text-anchor="middle" font-size="11" fill="#8a6a3e">25 ton</text>
<rect x="428" y="288" width="88" height="44" rx="9" fill="#fffdf9" stroke="#5d2021" stroke-width="1.6"/>
<text x="472" y="308" text-anchor="middle" font-size="13" font-weight="700" fill="#5d2021">T4</text>
<text x="472" y="324" text-anchor="middle" font-size="11" fill="#8a6a3e">25 ton</text>
</svg>